<?xml version="1.0" encoding="UTF-8"?>
<svg version="1.1" xmlns="http://www.w3.org/2000/svg" width="64" height="64">
<path d="M0 0 C0 18.48 0 36.96 0 56 C-5.62253481 54.87549304 -5.62253481 54.87549304 -8.828125 52.48046875 C-9.53791504 51.95799561 -10.24770508 51.43552246 -10.97900391 50.8972168 C-11.72843262 50.33301025 -12.47786133 49.76880371 -13.25 49.1875 C-14.84566381 48.00948098 -16.44203709 46.83242245 -18.0390625 45.65625 C-18.85407227 45.05296875 -19.66908203 44.4496875 -20.50878906 43.828125 C-24.5087337 40.89284614 -28.56528628 38.03925413 -32.625 35.1875 C-33.36524414 34.66631592 -34.10548828 34.14513184 -34.86816406 33.6081543 C-36.57809541 32.40446873 -38.28893679 31.20207606 -40 30 C-39.47297418 25.46318205 -39.47297418 25.46318205 -37.39624023 23.42944336 C-36.70731689 22.98737549 -36.01839355 22.54530762 -35.30859375 22.08984375 C-34.53588135 21.58026123 -33.76316895 21.07067871 -32.96704102 20.5456543 C-32.13229248 20.01496338 -31.29754395 19.48427246 -30.4375 18.9375 C-28.7034341 17.80036717 -26.97170298 16.65966687 -25.2421875 15.515625 C-24.3665918 14.93748047 -23.49099609 14.35933594 -22.58886719 13.76367188 C-17.92867205 10.58890295 -13.48794281 7.1188435 -9.07788086 3.60717773 C-4.42801765 -0 -4.42801765 -0 0 0 Z " fill="#000000" transform="translate(52,4)"/>
</svg>
