<?xml version="1.0" encoding="UTF-8"?>
<svg version="1.1" xmlns="http://www.w3.org/2000/svg" width="64" height="64">
<path d="M0 0 C1.16015625 0.01289062 2.3203125 0.02578125 3.515625 0.0390625 C4.7221875 0.07257812 5.92875 0.10609375 7.171875 0.140625 C9.00492188 0.16769531 9.00492188 0.16769531 10.875 0.1953125 C13.89141578 0.242444 16.90624991 0.30823087 19.921875 0.390625 C19.98246094 1.45023437 20.04304688 2.50984375 20.10546875 3.6015625 C20.18987627 4.98959721 20.27452417 6.37761732 20.359375 7.765625 C20.39869141 8.46429688 20.43800781 9.16296875 20.47851562 9.8828125 C20.66467634 13.76422992 20.66467634 13.76422992 21.921875 17.390625 C27.861875 17.720625 33.801875 18.050625 39.921875 18.390625 C40.02077533 24.29877843 40.09335871 30.20644972 40.14160156 36.11523438 C40.16171305 38.12508538 40.18900615 40.13487791 40.22363281 42.14453125 C40.27217134 45.03400096 40.29484822 47.92269691 40.3125 50.8125 C40.33314514 51.71055359 40.35379028 52.60860718 40.37506104 53.53387451 C40.37639232 57.23778473 40.31449864 59.68849953 38.48730469 62.95605469 C34.56037233 65.15196776 30.91429709 64.96238152 26.484375 64.921875 C25.5672876 64.9257019 24.6502002 64.92952881 23.70532227 64.93347168 C21.76870627 64.93619049 19.83205353 64.92883146 17.89550781 64.91210938 C14.93210947 64.89069894 11.97113549 64.91191169 9.0078125 64.9375 C7.12499465 64.93485672 5.24217831 64.92973173 3.359375 64.921875 C2.47386963 64.92997192 1.58836426 64.93806885 0.67602539 64.94641113 C-0.1516333 64.93380249 -0.97929199 64.92119385 -1.83203125 64.90820312 C-2.55720947 64.90502075 -3.2823877 64.90183838 -4.02954102 64.89855957 C-7.03075674 64.15442546 -8.21869602 62.82503181 -10.078125 60.390625 C-10.58605957 57.81054688 -10.58605957 57.81054688 -10.59570312 54.859375 C-10.60831177 53.75142578 -10.62092041 52.64347656 -10.63391113 51.50195312 C-10.62581421 50.31021484 -10.61771729 49.11847656 -10.609375 47.890625 C-10.6132019 46.66279297 -10.61702881 45.43496094 -10.62097168 44.16992188 C-10.62369342 41.57421041 -10.61631411 38.97847164 -10.59960938 36.3828125 C-10.57820575 32.40562901 -10.59940463 28.43025218 -10.625 24.453125 C-10.62235677 21.93228767 -10.61723191 19.41145147 -10.609375 16.890625 C-10.61747192 15.69888672 -10.62556885 14.50714844 -10.63391113 13.27929688 C-10.62130249 12.17134766 -10.60869385 11.06339844 -10.59570312 9.921875 C-10.59252075 8.94798828 -10.58933838 7.97410156 -10.58605957 6.97070312 C-9.40974579 0.9955606 -5.53065351 -0.10844419 0 0 Z M0.921875 25.390625 C0.591875 26.380625 0.261875 27.370625 -0.078125 28.390625 C9.491875 28.390625 19.061875 28.390625 28.921875 28.390625 C29.251875 27.730625 29.581875 27.070625 29.921875 26.390625 C27.15569937 25.00753719 24.911695 25.27852304 21.8203125 25.29296875 C20.00273438 25.29780273 20.00273438 25.29780273 18.1484375 25.30273438 C16.87742187 25.31111328 15.60640625 25.31949219 14.296875 25.328125 C12.37875 25.33489258 12.37875 25.33489258 10.421875 25.34179688 C7.25516208 25.35361297 4.08854144 25.37008685 0.921875 25.390625 Z M0.921875 35.390625 C0.591875 36.380625 0.261875 37.370625 -0.078125 38.390625 C9.491875 38.390625 19.061875 38.390625 28.921875 38.390625 C29.251875 37.730625 29.581875 37.070625 29.921875 36.390625 C27.15569937 35.00753719 24.911695 35.27852304 21.8203125 35.29296875 C20.00273438 35.29780273 20.00273438 35.29780273 18.1484375 35.30273438 C16.87742187 35.31111328 15.60640625 35.31949219 14.296875 35.328125 C12.37875 35.33489258 12.37875 35.33489258 10.421875 35.34179688 C7.25516208 35.35361297 4.08854144 35.37008685 0.921875 35.390625 Z M0.921875 45.390625 C0.591875 46.380625 0.261875 47.370625 -0.078125 48.390625 C3.551875 48.390625 7.181875 48.390625 10.921875 48.390625 C10.591875 47.400625 10.261875 46.410625 9.921875 45.390625 C6.951875 45.390625 3.981875 45.390625 0.921875 45.390625 Z " fill="#000000" transform="translate(17.078125,-0.390625)"/>
<path d="M0 0 C4.27252004 2.56351202 7.39604623 5.12188051 10.8125 8.625 C11.31458984 9.12773437 11.81667969 9.63046875 12.33398438 10.1484375 C16 13.85934311 16 13.85934311 16 15 C10.72 15 5.44 15 0 15 C0 10.05 0 5.1 0 0 Z " fill="#000000" transform="translate(40,0)"/>
</svg>
