<?xml version="1.0" encoding="UTF-8"?>
<svg version="1.1" xmlns="http://www.w3.org/2000/svg" width="64" height="64">
<path d="M0 0 C8.34468007 4.97590182 13.53387008 11.86345977 16.109375 21.2578125 C17.10789012 32.35758522 16.45884702 41.9922991 9.359375 51.0703125 C3.70168013 57.1280464 -3.34488592 60.84888618 -11.625 61.59375 C-22.35447774 61.83515993 -31.19802606 60.58332943 -39.359375 52.9609375 C-46.75303791 44.73737365 -48.47252567 36.02335615 -48.203125 25.24609375 C-47.72879865 16.86039919 -44.11592977 9.8548755 -37.890625 4.2578125 C-27.15195714 -3.81766573 -12.32399863 -5.91386512 0 0 Z M-16.890625 10.2578125 C-16.973125 10.8765625 -17.055625 11.4953125 -17.140625 12.1328125 C-17.890625 14.2578125 -17.890625 14.2578125 -19.828125 15.3828125 C-20.50875 15.6715625 -21.189375 15.9603125 -21.890625 16.2578125 C-24.30402391 18.24740658 -24.30402391 18.24740658 -24.265625 22.1328125 C-24.17139132 25.02788051 -24.00561236 26.08054032 -22.390625 28.5703125 C-19.03589281 30.83475673 -15.73088558 31.97772564 -11.890625 33.2578125 C-11.84808144 35.25735996 -11.84981717 37.25822886 -11.890625 39.2578125 C-12.890625 40.2578125 -12.890625 40.2578125 -15.765625 40.6328125 C-17.3125 40.4471875 -17.3125 40.4471875 -18.890625 40.2578125 C-20.640625 37.7578125 -20.640625 37.7578125 -21.890625 35.2578125 C-22.550625 35.2578125 -23.210625 35.2578125 -23.890625 35.2578125 C-24.22560801 37.58946284 -24.22560801 37.58946284 -23.890625 40.2578125 C-22.1193632 42.61303475 -22.1193632 42.61303475 -19.890625 44.2578125 C-19.230625 44.2578125 -18.570625 44.2578125 -17.890625 44.2578125 C-17.560625 45.5778125 -17.230625 46.8978125 -16.890625 48.2578125 C-15.405625 47.7628125 -15.405625 47.7628125 -13.890625 47.2578125 C-13.890625 46.2678125 -13.890625 45.2778125 -13.890625 44.2578125 C-13.271875 43.9690625 -12.653125 43.6803125 -12.015625 43.3828125 C-9.75736735 42.32061208 -9.75736735 42.32061208 -7.890625 40.2578125 C-7.28316772 34.78261466 -7.28316772 34.78261466 -9.390625 29.9453125 C-12.74535719 27.68086827 -16.05036442 26.53789936 -19.890625 25.2578125 C-19.93316856 23.25826504 -19.93143283 21.25739614 -19.890625 19.2578125 C-18.890625 18.2578125 -18.890625 18.2578125 -16.015625 17.8828125 C-14.46875 18.0684375 -14.46875 18.0684375 -12.890625 18.2578125 C-11.140625 20.7578125 -11.140625 20.7578125 -9.890625 23.2578125 C-9.230625 23.2578125 -8.570625 23.2578125 -7.890625 23.2578125 C-7.55564199 20.92616216 -7.55564199 20.92616216 -7.890625 18.2578125 C-9.6618868 15.90259025 -9.6618868 15.90259025 -11.890625 14.2578125 C-12.550625 14.2578125 -13.210625 14.2578125 -13.890625 14.2578125 C-14.220625 12.9378125 -14.550625 11.6178125 -14.890625 10.2578125 C-15.550625 10.2578125 -16.210625 10.2578125 -16.890625 10.2578125 Z " fill="#000000" transform="translate(47.890625,2.7421875)"/>
</svg>
