<?xml version="1.0" encoding="UTF-8"?>
<svg version="1.1" xmlns="http://www.w3.org/2000/svg" width="64" height="64">
<path d="M0 0 C15.84 0 31.68 0 48 0 C48 6.93 48 13.86 48 21 C46.68 21.33 45.36 21.66 44 22 C42 20 42 20 41.8046875 16.7421875 C41.82789063 15.46601563 41.85109375 14.18984375 41.875 12.875 C41.89304688 11.59367188 41.91109375 10.31234375 41.9296875 8.9921875 C41.95289063 8.00476562 41.97609375 7.01734375 42 6 C36.06 6.495 36.06 6.495 30 7 C30.66 7.33 31.32 7.66 32 8 C32 22.85 32 37.7 32 53 C35.3 53 38.6 53 42 53 C42 48.05 42 43.1 42 38 C44.475 37.505 44.475 37.505 47 37 C48.58937556 38.58937556 48.12981143 40.23899846 48.1328125 42.4375 C48.13474609 43.77941406 48.13474609 43.77941406 48.13671875 45.1484375 C48.13285156 46.08945312 48.12898438 47.03046875 48.125 48 C48.13080078 49.41152344 48.13080078 49.41152344 48.13671875 50.8515625 C48.13542969 51.74617188 48.13414063 52.64078125 48.1328125 53.5625 C48.13168457 54.38878906 48.13055664 55.21507812 48.12939453 56.06640625 C48 58 48 58 47 59 C44.46950598 59.07313567 41.96695163 59.09247527 39.4375 59.0625 C38.72658203 59.05798828 38.01566406 59.05347656 37.28320312 59.04882812 C35.52209987 59.03700864 33.76103964 59.01907263 32 59 C32 60.65 32 62.3 32 64 C25.04537545 64.32560667 18.82796452 63.1060975 12.0625 61.5625 C11.00998047 61.33240234 9.95746094 61.10230469 8.87304688 60.86523438 C1.14372664 59.14372664 1.14372664 59.14372664 0 58 C-0.09376053 56.18944975 -0.1174411 54.37522799 -0.11352539 52.56225586 C-0.11344986 51.40112778 -0.11337433 50.23999969 -0.11329651 49.04368591 C-0.10813522 47.780168 -0.10297394 46.51665009 -0.09765625 45.21484375 C-0.0962413 43.92888809 -0.09482635 42.64293243 -0.09336853 41.31800842 C-0.08954418 37.89356557 -0.07971462 34.46916491 -0.06866455 31.04473877 C-0.05844864 27.55261822 -0.05381582 24.06049067 -0.04882812 20.56835938 C-0.03862247 13.71220228 -0.01905077 6.85616115 0 0 Z " fill="#000000" transform="translate(0,0)"/>
<path d="M0 0 C3.73438914 0.42214834 5.62756783 2.16641868 8.25 4.75 C8.95640625 5.42546875 9.6628125 6.1009375 10.390625 6.796875 C12 9 12 9 12.46484375 11.49609375 C11.8617243 14.74482961 10.65671907 16.01161215 8.3125 18.3125 C7.62800781 19.00988281 6.94351563 19.70726563 6.23828125 20.42578125 C3.59149726 22.28730647 2.16687316 22.32722507 -1 22 C-1.625 20.1875 -1.625 20.1875 -2 18 C-1.34 17.01 -0.68 16.02 0 15 C-6.93 14.505 -6.93 14.505 -14 14 C-14.33 12.35 -14.66 10.7 -15 9 C-13.05909174 7.05909174 -9.52706098 7.60080565 -6.9375 7.4375 C-5.64714844 7.35371094 -4.35679688 7.26992188 -3.02734375 7.18359375 C-2.02832031 7.12300781 -1.02929688 7.06242187 0 7 C-0.66 6.34 -1.32 5.68 -2 5 C-1.46428571 1.46428571 -1.46428571 1.46428571 0 0 Z " fill="#000000" transform="translate(52,18)"/>
</svg>
