<?xml version="1.0" encoding="UTF-8"?>
<svg version="1.1" xmlns="http://www.w3.org/2000/svg" width="64" height="64">
<path d="M0 0 C0.62132812 0.391875 1.24265625 0.78375 1.8828125 1.1875 C2.50414062 1.538125 3.12546875 1.88875 3.765625 2.25 C10.62521869 6.52611035 14.82446272 13.4804369 16.8828125 21.1875 C17.67485162 30.07491567 17.78212394 38.41951278 12.8828125 46.1875 C12.5321875 46.80882812 12.1815625 47.43015625 11.8203125 48.0703125 C7.54420215 54.92990619 0.5898756 59.12915022 -7.1171875 61.1875 C-16.00460317 61.97953912 -24.34920028 62.08681144 -32.1171875 57.1875 C-33.04917969 56.6615625 -33.04917969 56.6615625 -34 56.125 C-40.85959369 51.84888965 -45.05883772 44.8945631 -47.1171875 37.1875 C-47.90922662 28.30008433 -48.01649894 19.95548722 -43.1171875 12.1875 C-42.7665625 11.56617188 -42.4159375 10.94484375 -42.0546875 10.3046875 C-33.73233229 -3.04575731 -13.65305461 -7.47543675 0 0 Z M-27.1171875 13.1875 C-29.98481012 15.42783017 -31.01976909 16.70040794 -31.7421875 20.3125 C-30.21109515 29.80527256 -23.67579225 36.67711856 -16.1171875 42.1875 C-11.95041269 44.70280918 -8.0033457 45.83898776 -3.1171875 45.1875 C-0.77457142 43.80823227 -0.77457142 43.80823227 0.8828125 42.1875 C-0.60816408 38.3922869 -2.87419599 36.57707269 -6.1171875 34.1875 C-6.643125 34.9609375 -6.643125 34.9609375 -7.1796875 35.75 C-9.1171875 37.1875 -9.1171875 37.1875 -12.3671875 37.3125 C-17.31534687 35.82805219 -20.12043084 33.35997535 -23.1171875 29.1875 C-23.7421875 26.4375 -23.7421875 26.4375 -23.1171875 24.1875 C-21.6171875 22.375 -21.6171875 22.375 -20.1171875 21.1875 C-21.60816408 17.3922869 -23.87419599 15.57707269 -27.1171875 13.1875 Z " fill="#000000" transform="translate(47.1171875,2.8125)"/>
</svg>
