<?xml version="1.0" encoding="UTF-8"?>
<svg version="1.1" xmlns="http://www.w3.org/2000/svg" width="64" height="64">
<path d="M0 0 C1.875 1 1.875 1 3 3 C3.3829977 6.46825691 3.59352059 9.81295882 2 13 C3.32 13.66 4.64 14.32 6 15 C5.97679687 14.30132812 5.95359375 13.60265625 5.9296875 12.8828125 C5.91164062 11.97273437 5.89359375 11.06265625 5.875 10.125 C5.85179687 9.22007813 5.82859375 8.31515625 5.8046875 7.3828125 C6 5 6 5 8 3 C11.5 2.6875 11.5 2.6875 15 3 C17.17006563 6.25509844 17.15912837 6.77471473 16.875 10.4375 C16.75741782 12.82056485 16.75741782 12.82056485 17 15 C18.31266518 16.35368596 19.64567325 17.68799596 21 19 C21.36366247 21.75420841 21.18624481 24.20632784 21 27 C16.38 27 11.76 27 7 27 C7 27.99 7 28.98 7 30 C0.4 30 -6.2 30 -13 30 C-13 29.01 -13 28.02 -13 27 C-17.62 27 -22.24 27 -27 27 C-27.35439739 21.68403909 -27.35439739 21.68403909 -27 19 C-26.34 18.360625 -25.68 17.72125 -25 17.0625 C-22.78770013 15.22157294 -22.78770013 15.22157294 -22.83984375 12.8671875 C-22.90351649 11.28300968 -23.00592306 9.69977502 -23.15234375 8.12109375 C-23 6 -23 6 -21.6953125 4.24609375 C-19.10576848 2.34271923 -17.11070306 2.60288897 -14 3 C-11.86413322 6.20380017 -11.76867825 7.01939967 -11.875 10.6875 C-11.89304687 11.49574219 -11.91109375 12.30398438 -11.9296875 13.13671875 C-11.96449219 14.05904297 -11.96449219 14.05904297 -12 15 C-10.68 14.34 -9.36 13.68 -8 13 C-8.33 12.34 -8.66 11.68 -9 11 C-9.45641838 3.81141046 -9.45641838 3.81141046 -7.875 1 C-5.10184376 -0.47901666 -3.08815875 -0.38601984 0 0 Z M-5.8125 3.0625 C-7.31589654 5.07818026 -7.31589654 5.07818026 -6.6875 8.1875 C-6.460625 9.115625 -6.23375 10.04375 -6 11 C-4.35 11.33 -2.7 11.66 -1 12 C1.36692966 9.15173402 1.36692966 9.15173402 0.625 5.8125 C0.41875 4.884375 0.2125 3.95625 0 3 C-2.47999295 2.05931302 -3.46697084 1.68753463 -5.8125 3.0625 Z M-18 5 C-20.16940921 5.79895413 -20.16940921 5.79895413 -20.6875 7.875 C-21.18988397 10.18183235 -21.18988397 10.18183235 -20 13 C-19.01 13.33 -18.02 13.66 -17 14 C-15.33378575 12.8354799 -15.33378575 12.8354799 -14 11 C-14.23043864 8.34533951 -14.23043864 8.34533951 -15 6 C-15.99 5.67 -16.98 5.34 -18 5 Z M11 5 C9.33378575 6.1645201 9.33378575 6.1645201 8 8 C8.23043864 10.65466049 8.23043864 10.65466049 9 13 C9.99 13.33 10.98 13.66 12 14 C13.66621425 12.8354799 13.66621425 12.8354799 15 11 C14.76956136 8.34533951 14.76956136 8.34533951 14 6 C13.01 5.67 12.02 5.34 11 5 Z M-5 14 C-4.67 14.66 -4.34 15.32 -4 16 C-2.68 15.34 -1.36 14.68 0 14 C-1.65 14 -3.3 14 -5 14 Z M-8 16 C-9.66641006 16.990755 -9.66641006 16.990755 -11 19 C-11 21.64 -11 24.28 -11 27 C-5.72 27 -0.44 27 5 27 C5 24.36 5 21.72 5 19 C3.22255979 16.78848226 3.22255979 16.78848226 0.90625 16.83984375 C0.1121875 16.87207031 -0.681875 16.90429688 -1.5 16.9375 C-5.80362538 17.09818731 -5.80362538 17.09818731 -8 16 Z M-23 18 C-23.33 20.31 -23.66 22.62 -24 25 C-20.37 25 -16.74 25 -13 25 C-13 22.69 -13 20.38 -13 18 C-16.3 18 -19.6 18 -23 18 Z M7 18 C7 20.31 7 22.62 7 25 C10.63 25 14.26 25 18 25 C18 23.02 18 21.04 18 19 C15.24921116 18.08307039 13.64051087 17.89113917 10.8125 17.9375 C9.554375 17.958125 8.29625 17.97875 7 18 Z " fill="#000000" transform="translate(35,3)"/>
<path d="M0 0 C4.02585429 0.73467444 4.02585429 0.73467444 7.84765625 -0.33203125 C13.21221876 -3.0143125 21.1846147 -1.55610241 26.91015625 -0.36328125 C27.57015625 0.29671875 28.23015625 0.95671875 28.91015625 1.63671875 C28.70576338 4.19067153 28.24893554 5.31635842 26.37890625 7.0847168 C24.23346175 8.51634339 22.08387921 9.93575781 19.91015625 11.32421875 C19.17925781 11.82244141 18.44835938 12.32066406 17.6953125 12.83398438 C10.41992809 17.54572279 4.05990659 18.12120435 -4.46484375 17.13671875 C-8.84079354 16.63460707 -8.84079354 16.63460707 -13.08984375 17.63671875 C-12.75984375 19.94671875 -12.42984375 22.25671875 -12.08984375 24.63671875 C-17.03984375 24.63671875 -21.98984375 24.63671875 -27.08984375 24.63671875 C-29.37555804 8.77957589 -29.37555804 8.77957589 -29.08984375 0.63671875 C-27.46520533 0.58276397 -25.84005834 0.5439468 -24.21484375 0.51171875 C-23.30992188 0.48851562 -22.405 0.4653125 -21.47265625 0.44140625 C-19.08984375 0.63671875 -19.08984375 0.63671875 -17.08984375 2.63671875 C-16.22359375 1.92515625 -16.22359375 1.92515625 -15.33984375 1.19921875 C-10.22584049 -2.3521724 -5.9115112 -1.02760849 0 0 Z M-17.08984375 5.63671875 C-16.42984375 8.93671875 -15.76984375 12.23671875 -15.08984375 15.63671875 C-14.47109375 15.28609375 -13.85234375 14.93546875 -13.21484375 14.57421875 C-9.48551892 13.4554213 -6.78962531 13.8052929 -2.98046875 14.34765625 C-2.0265625 14.44304688 -1.07265625 14.5384375 -0.08984375 14.63671875 C0.58755859 14.70648926 1.26496094 14.77625977 1.96289062 14.84814453 C8.31305796 15.21743538 11.86686836 13.47513357 16.91015625 9.76171875 C17.57660156 9.30152344 18.24304687 8.84132813 18.9296875 8.3671875 C22.46395579 6.00664965 22.46395579 6.00664965 24.91015625 2.63671875 C21.87496201 3.55433561 19.27336421 4.39292162 16.62890625 6.16796875 C13.33033544 7.94995528 10.82538369 8.13594969 7.09765625 8.32421875 C5.93621094 8.38996094 4.77476563 8.45570312 3.578125 8.5234375 C2.69769531 8.56082031 1.81726563 8.59820312 0.91015625 8.63671875 C0.91015625 7.97671875 0.91015625 7.31671875 0.91015625 6.63671875 C4.21015625 6.30671875 7.51015625 5.97671875 10.91015625 5.63671875 C10.58015625 4.97671875 10.25015625 4.31671875 9.91015625 3.63671875 C7.1607932 3.20517648 7.1607932 3.20517648 3.97265625 3.07421875 C-1.90090988 2.73118569 -1.90090988 2.73118569 -4.08984375 1.63671875 C-9.79975931 1.08768841 -12.58792138 2.12302324 -17.08984375 5.63671875 Z M-27.08984375 2.63671875 C-26.78199998 5.59560548 -26.46878801 8.55375042 -26.15234375 11.51171875 C-26.06533203 12.35347656 -25.97832031 13.19523437 -25.88867188 14.0625 C-25.7581543 15.27099609 -25.7581543 15.27099609 -25.625 16.50390625 C-25.54644775 17.24753418 -25.46789551 17.99116211 -25.38696289 18.75732422 C-25.17347028 20.72118191 -25.17347028 20.72118191 -24.08984375 22.63671875 C-23.42984375 22.30671875 -22.76984375 21.97671875 -22.08984375 21.63671875 C-21.43771083 19.6120862 -21.43771083 19.6120862 -21.08984375 17.63671875 C-20.09984375 17.96671875 -19.10984375 18.29671875 -18.08984375 18.63671875 C-18.08984375 19.95671875 -18.08984375 21.27671875 -18.08984375 22.63671875 C-17.09984375 22.30671875 -16.10984375 21.97671875 -15.08984375 21.63671875 C-17.06984375 15.36671875 -19.04984375 9.09671875 -21.08984375 2.63671875 C-23.06984375 2.63671875 -25.04984375 2.63671875 -27.08984375 2.63671875 Z " fill="#000000" transform="translate(32.08984375,36.36328125)"/>
</svg>
